<svg width="92" height="47" viewBox="0 0 92 47" fill="none" xmlns="http://www.w3.org/2000/svg">
<path fill-rule="evenodd" clip-rule="evenodd" d="M3.01485 38.1563L0.320777 34.9421C0.219284 34.8251 0.138595 34.685 0.0834936 34.5302C0.0283923 34.3754 0 34.209 0 34.0409C0 33.8728 0.0283923 33.7064 0.0834936 33.5516C0.138595 33.3968 0.219284 33.2568 0.320777 33.1397L3.01485 29.9555L0.320777 26.7413C0.219284 26.6242 0.138595 26.4842 0.0834936 26.3294C0.0283923 26.1746 0 26.0082 0 25.8401C0 25.672 0.0283923 25.5056 0.0834936 25.3508C0.138595 25.196 0.219284 25.0559 0.320777 24.9389L3.01485 21.7547L0.320777 18.5405C0.123544 18.3051 0.0128039 17.9865 0.0128039 17.6543C0.0128039 17.3221 0.123544 17.0035 0.320777 16.7681L3.01485 13.5539L0.320777 10.3396C0.219284 10.2226 0.138595 10.0825 0.0834936 9.92772C0.0283923 9.77291 0 9.60654 0 9.43845C0 9.27036 0.0283923 9.10399 0.0834936 8.94919C0.138595 8.79439 0.219284 8.65431 0.320777 8.53726L3.01485 5.37709L0.320777 2.13882C0.174327 1.9629 0.0748821 1.73945 0.0349342 1.49656C-0.0050138 1.25367 0.0163169 1.00216 0.0962466 0.773632C0.176176 0.545104 0.31114 0.349748 0.484184 0.212105C0.657227 0.0744615 0.860633 0.000669911 1.06885 0H89.0633C89.8414 0.00316712 90.5868 0.371943 91.1369 1.02587C91.6871 1.6798 91.9973 2.56581 92 3.4906V47C91.9987 46.0747 91.6888 45.1878 91.1384 44.5335C90.5879 43.8793 89.8418 43.511 89.0633 43.5094H1.06885C0.860633 43.5087 0.657227 43.4349 0.484184 43.2973C0.31114 43.1596 0.176176 42.9643 0.0962466 42.7358C0.0163169 42.5072 -0.0050138 42.2557 0.0349342 42.0128C0.0748821 41.7699 0.174327 41.5465 0.320777 41.3706L3.01485 38.1563Z" fill="url(#paint0_linear)"/>
<defs>
<linearGradient id="paint0_linear" x1="54.9199" y1="17.7234" x2="8.86415" y2="39.8064" gradientUnits="userSpaceOnUse">
<stop stop-color="#133E59"/>
<stop offset="1" stop-color="#133E59"/>
</linearGradient>
</defs>
</svg>
