<svg width="34" height="88" viewBox="0 0 34 88" fill="none" xmlns="http://www.w3.org/2000/svg">
<path fill-rule="evenodd" clip-rule="evenodd" d="M3.81622e-05 71.7489V2.60555C0.002301 1.91755 0.267281 1.25821 0.737527 0.770469C1.20777 0.282726 1.84538 0.0058965 2.51212 0H34C33.331 0.00236408 32.6901 0.277635 32.217 0.765758C31.744 1.25388 31.4772 1.91524 31.4749 2.60555V71.7489C31.4757 72.123 31.3336 72.4823 31.0794 72.749L16.6936 87.5929C16.4395 87.8537 16.0958 88 15.7375 88C15.3791 88 15.0354 87.8537 14.7813 87.5929L0.395538 72.7535C0.268878 72.622 0.168715 72.4659 0.100833 72.2942C0.0329499 72.1226 -0.00130756 71.9388 3.81622e-05 71.7534V71.7489Z" fill="url(#paint0_linear)"/>
<defs>
<linearGradient id="paint0_linear" x1="20.2965" y1="33.1842" x2="-0.451419" y2="35.1478" gradientUnits="userSpaceOnUse">
<stop stop-color="#797EFA"/>
<stop offset="1" stop-color="#FD97FF"/>
</linearGradient>
</defs>
</svg>
