<svg width="66" height="66" viewBox="0 0 66 66" fill="none" xmlns="http://www.w3.org/2000/svg">
<circle cx="33" cy="33" r="33" fill="#FF6464"/>
<g clip-path="url(#clip0)">
<path d="M36.2587 32.9992L47.3206 21.9368C47.6249 21.6323 47.7928 21.226 47.7932 20.7928C47.7932 20.3594 47.6253 19.9526 47.3206 19.6486L46.3512 18.6794C46.0464 18.3742 45.6402 18.207 45.2065 18.207C44.7735 18.207 44.3673 18.3742 44.0625 18.6794L33.0006 29.7411L21.9383 18.6794C21.634 18.3742 21.2275 18.207 20.794 18.207C20.3611 18.207 19.9545 18.3742 19.6503 18.6794L18.6804 19.6486C18.0492 20.2797 18.0492 21.3064 18.6804 21.9368L29.7425 32.9992L18.6804 44.061C18.3759 44.366 18.2082 44.7723 18.2082 45.2055C18.2082 45.6387 18.3759 46.045 18.6804 46.3498L19.65 47.3189C19.9543 47.6239 20.3611 47.7913 20.7938 47.7913C21.2272 47.7913 21.6337 47.6239 21.938 47.3189L33.0004 36.257L44.0622 47.3189C44.367 47.6239 44.7733 47.7913 45.2062 47.7913H45.2067C45.6399 47.7913 46.0462 47.6239 46.351 47.3189L47.3203 46.3498C47.6246 46.0452 47.7925 45.6387 47.7925 45.2055C47.7925 44.7723 47.6246 44.366 47.3203 44.0613L36.2587 32.9992Z" fill="white"/>
</g>
<defs>
<clipPath id="clip0">
<rect width="29.5862" height="29.5862" fill="white" transform="translate(18.207 18.2068)"/>
</clipPath>
</defs>
</svg>
