<svg width="20" height="20" viewBox="0 0 20 20" fill="none" xmlns="http://www.w3.org/2000/svg">
<path d="M17.0711 2.47759C15.1823 0.879886 12.6711 0 10 0C7.32895 0 4.81765 0.879886 2.92894 2.47759C1.04018 4.07533 0 6.19956 0 8.45898C0 13.0298 5.10913 16.8316 7.85395 18.874C8.23539 19.1578 8.56479 19.4029 8.82722 19.6103C9.15601 19.8701 9.57804 20 9.99998 20C10.422 20 10.8439 19.8701 11.1728 19.6103C11.4352 19.4029 11.7646 19.1578 12.146 18.874C14.8909 16.8315 20 13.0298 20 8.45898C20 6.19956 18.9598 4.07533 17.0711 2.47759ZM11.2312 17.9944C10.8414 18.2844 10.5048 18.5349 10.2273 18.7542C10.0998 18.8548 9.90014 18.8549 9.77259 18.7542C9.4951 18.5348 9.15846 18.2844 8.76866 17.9943C6.18819 16.0742 1.3849 12.5 1.3849 8.45902C1.3849 4.44072 5.24956 1.17161 9.99993 1.17161C14.7503 1.17161 18.6149 4.44072 18.6149 8.45902C18.615 12.5 13.8117 16.0742 11.2312 17.9944Z" fill="#C4C4C4"/>
<path d="M9.99991 4.41162C7.56993 4.41162 5.59302 6.08385 5.59302 8.13937C5.59302 10.1949 7.56993 11.8671 9.99991 11.8671C12.4299 11.8671 14.4068 10.1949 14.4068 8.13937C14.4068 6.08385 12.4299 4.41162 9.99991 4.41162ZM9.99991 10.6955C8.33364 10.6955 6.97801 9.54879 6.97801 8.13933C6.97801 6.72987 8.33364 5.58315 9.99991 5.58315C11.6662 5.58315 13.0218 6.72987 13.0218 8.13933C13.0218 9.54879 11.6662 10.6955 9.99991 10.6955Z" fill="#C4C4C4"/>
</svg>
