<svg width="500" height="500" viewBox="0 0 500 500" fill="none" xmlns="http://www.w3.org/2000/svg">
<g clip-path="url(#clip0)">
<path d="M475.902 215.671C493.905 201.344 496.886 175.136 482.56 157.133C468.233 139.13 442.024 136.149 424.021 150.475C406.018 164.802 403.038 191.011 417.364 209.014C419.324 211.477 421.558 213.711 424.021 215.671C418.91 218.786 414.396 222.788 410.692 227.489L369.854 268.327C361.68 257.334 346.141 255.049 335.148 263.224C332.678 265.061 330.571 267.342 328.936 269.949L279.835 234.878L279.793 234.938C278.551 234.011 277.266 233.144 275.94 232.334C293.943 218.008 296.924 191.799 282.597 173.796C268.271 155.793 242.062 152.813 224.059 167.139C206.056 181.466 203.075 207.674 217.402 225.677C219.362 228.14 221.596 230.374 224.059 232.334C222.732 233.145 221.448 234.012 220.207 234.938L220.164 234.878L171.064 269.949C163.785 258.343 148.476 254.835 136.871 262.114C134.263 263.749 131.982 265.856 130.145 268.327L89.3078 227.489C85.6033 222.788 81.0895 218.786 75.9779 215.671C93.9809 201.344 96.9616 175.136 82.635 157.133C68.3085 139.13 42.0998 136.149 24.0968 150.475C6.09075 164.801 3.11109 191.01 17.4376 209.014C19.3977 211.477 21.6317 213.711 24.0947 215.671C9.18185 224.715 0.0658165 240.882 0.0439455 258.323V333.31C0.0429041 337.91 3.77139 341.64 8.37158 341.641C8.37263 341.641 8.37471 341.641 8.37575 341.641H91.6938C96.294 341.643 100.025 337.914 100.026 333.314C100.026 333.313 100.026 333.311 100.026 333.31V261.773L125.409 287.157C127.487 300.761 140.201 310.107 153.805 308.029C164.289 306.428 172.61 298.368 174.544 287.941L200.32 269.531C200.117 271.343 200.012 273.164 200.007 274.987V349.973C200.006 354.573 203.735 358.304 208.335 358.305C208.336 358.305 208.338 358.305 208.339 358.305H291.657C296.257 358.306 299.988 354.578 299.989 349.977C299.989 349.976 299.989 349.974 299.989 349.973V274.987C299.984 273.163 299.88 271.342 299.676 269.531L325.452 287.941C327.963 301.473 340.968 310.407 354.5 307.896C364.926 305.961 372.986 297.639 374.588 287.157L399.972 261.773V333.31C399.971 337.91 403.699 341.64 408.299 341.641C408.3 341.641 408.302 341.641 408.303 341.641H491.621C496.222 341.643 499.952 337.914 499.953 333.314C499.953 333.313 499.953 333.311 499.953 333.31V258.323C499.93 240.882 490.814 224.715 475.902 215.671ZM50.0348 158.342C63.8395 158.342 75.0302 169.532 75.0302 183.337C75.0302 197.142 63.8395 208.333 50.0348 208.333C36.23 208.333 25.0394 197.142 25.0394 183.337C25.0539 169.539 36.2363 158.356 50.0348 158.342ZM83.362 324.978H16.7076V258.323C16.7076 239.917 31.6288 224.996 50.0348 224.996C68.4408 224.996 83.362 239.917 83.362 258.323V324.978ZM150.016 291.651C145.415 291.651 141.685 287.92 141.685 283.319C141.685 278.718 145.415 274.987 150.016 274.987C154.618 274.987 158.348 278.718 158.348 283.319C158.344 287.918 154.616 291.645 150.016 291.651ZM249.998 175.005C263.803 175.005 274.994 186.196 274.994 200.001C274.994 213.806 263.803 224.996 249.998 224.996C236.193 224.996 225.003 213.806 225.003 200.001C225.017 186.202 236.2 175.02 249.998 175.005ZM283.325 341.641H216.671V274.987C216.671 256.581 231.592 241.66 249.998 241.66C268.404 241.66 283.325 256.581 283.325 274.987V341.641ZM349.98 291.651C345.379 291.651 341.648 287.92 341.648 283.319C341.648 278.718 345.379 274.987 349.98 274.987C354.581 274.987 358.312 278.718 358.312 283.319C358.307 287.918 354.579 291.645 349.98 291.651ZM449.961 158.342C463.766 158.342 474.957 169.532 474.957 183.337C474.957 197.142 463.766 208.333 449.961 208.333C436.157 208.333 424.966 197.142 424.966 183.337C424.981 169.539 436.163 158.356 449.961 158.342ZM483.289 324.978H416.634V258.323C416.634 239.917 431.555 224.996 449.961 224.996C468.367 224.996 483.289 239.917 483.289 258.323V324.978Z" fill="#F5B51B"/>
<path d="M286.358 65.6786C276.596 55.9179 260.769 55.92 251.01 65.6828C241.249 55.9221 225.425 55.9221 215.665 65.6828C205.905 75.4435 205.905 91.2677 215.665 101.027L245.119 130.486C248.371 133.739 253.645 133.74 256.898 130.489C256.899 130.488 256.9 130.487 256.901 130.486L286.364 101.027C296.123 91.2656 296.121 75.4383 286.358 65.6786ZM274.581 89.2462L251.01 112.814L227.446 89.242C224.221 85.9624 224.265 80.6884 227.544 77.4629C230.786 74.2739 235.986 74.275 239.228 77.465L245.118 83.3556C248.37 86.6092 253.644 86.6102 256.897 83.3587C256.898 83.3577 256.899 83.3566 256.9 83.3556L262.791 77.465C266.052 74.2218 271.321 74.2218 274.581 77.465C277.828 80.7206 277.828 85.9895 274.581 89.2462Z" fill="#F5B51B"/>
<path d="M492.891 7.50604L492.883 7.50187C483.367 -2.02555 467.965 -2.15261 458.294 7.21755C448.62 -2.15469 433.214 -2.02659 423.697 7.50604C414.33 17.4084 414.335 32.9045 423.706 42.8027L452.297 72.4722C455.486 75.7841 460.755 75.8841 464.067 72.6951C464.143 72.6222 464.217 72.5472 464.29 72.4722L492.882 42.8027C502.255 32.9045 502.258 17.4084 492.891 7.50604ZM480.889 31.2402L458.294 54.6859L435.699 31.2402C432.469 27.8242 432.469 22.4804 435.699 19.0643C438.503 16.0607 443.212 15.8982 446.215 18.7019C446.34 18.8185 446.461 18.9394 446.578 19.0643L452.297 24.9997C455.629 28.2626 460.958 28.2626 464.291 24.9997L470.011 19.0643C472.948 16.0618 477.764 16.0086 480.766 18.9456C480.805 18.9831 480.843 19.0216 480.881 19.0602C484.118 22.4741 484.122 27.8221 480.889 31.2402Z" fill="#F5B51B"/>
<path d="M76.2992 7.50708L76.2909 7.50291C66.7749 -2.02451 51.3736 -2.15157 41.7025 7.21755C32.0282 -2.15469 16.6227 -2.02659 7.10568 7.50604C-2.26135 17.4084 -2.25719 32.9045 7.11401 42.8027L35.7056 72.4722C38.8946 75.7841 44.1635 75.8841 47.4754 72.6951C47.5514 72.6222 47.6253 72.5472 47.6982 72.4722L76.2899 42.8027C85.6621 32.9055 85.6663 17.4094 76.2992 7.50708ZM64.2973 31.2402L41.7025 54.6859L19.1076 31.2402C15.7905 27.8065 15.7197 22.4293 19.1076 19.0643C21.9113 16.0607 26.6198 15.8982 29.6234 18.7019C29.7484 18.8185 29.8692 18.9394 29.9859 19.0643L35.7056 24.9997C39.0373 28.2626 44.3666 28.2626 47.6993 24.9997L53.4191 19.0643C56.356 16.0618 61.1718 16.0086 64.1744 18.9456C64.2129 18.9831 64.2514 19.0216 64.2889 19.0602C67.5259 22.4741 67.53 27.8221 64.2973 31.2402Z" fill="#F5B51B"/>
<path d="M120.631 36.107C86.0038 57.0438 56.9768 86.0707 36.04 120.698L50.2958 129.331C116.973 19.0372 260.436 -16.3198 370.73 50.3586C403.058 69.9029 430.158 97.0031 449.702 129.331L463.957 120.698C392.509 2.53192 238.797 -35.3403 120.631 36.107Z" fill="#F5B51B"/>
<path d="M458.596 354.566C400.79 469.771 260.537 516.301 145.333 458.495C100.4 435.949 63.9485 399.499 41.4037 354.566L26.5137 362.044C88.4481 485.472 238.713 535.323 362.141 473.388C410.279 449.233 449.331 410.181 473.485 362.044L458.596 354.566Z" fill="#F5B51B"/>
</g>
<defs>
<clipPath id="clip0">
<rect width="500" height="500" fill="white"/>
</clipPath>
</defs>
</svg>
