<svg width="20" height="20" viewBox="0 0 20 20" fill="none" xmlns="http://www.w3.org/2000/svg">
<path d="M19.9999 19.1665C19.9999 19.3875 19.9121 19.5994 19.7558 19.7557C19.5995 19.912 19.3876 19.9998 19.1665 19.9998H0.833212C0.612198 19.9998 0.400236 19.912 0.243956 19.7557C0.0876755 19.5994 -0.000121896 19.3875 -0.000121896 19.1665C-0.000121896 18.9455 0.0876755 18.7335 0.243956 18.5772C0.400236 18.4209 0.612198 18.3331 0.833212 18.3331H19.1665C19.3876 18.3331 19.5995 18.4209 19.7558 18.5772C19.9121 18.7335 19.9999 18.9455 19.9999 19.1665ZM0.242378 7.12647C0.0628134 6.79341 -0.0203764 6.41689 0.00214513 6.03918C0.0246666 5.66146 0.152008 5.2975 0.369878 4.98813C0.725927 4.46573 1.20275 4.03694 1.75988 3.73814L8.01071 0.484802C8.6251 0.165328 9.30739 -0.00146484 9.99988 -0.00146484C10.6924 -0.00146484 11.3747 0.165328 11.989 0.484802L18.239 3.74063C18.7962 4.03944 19.273 4.46823 19.629 4.99063C19.8469 5.3 19.9743 5.66396 19.9968 6.04168C20.0193 6.41939 19.9361 6.79591 19.7565 7.12897C19.5632 7.49466 19.2733 7.8003 18.9183 8.01262C18.5633 8.22495 18.1568 8.33581 17.7432 8.33313H17.4999V14.9998H18.3332C18.5542 14.9998 18.7662 15.0876 18.9225 15.2439C19.0787 15.4002 19.1665 15.6121 19.1665 15.8331C19.1665 16.0541 19.0787 16.2661 18.9225 16.4224C18.7662 16.5787 18.5542 16.6665 18.3332 16.6665H1.66654C1.44553 16.6665 1.23357 16.5787 1.07729 16.4224C0.921009 16.2661 0.833212 16.0541 0.833212 15.8331C0.833212 15.6121 0.921009 15.4002 1.07729 15.2439C1.23357 15.0876 1.44553 14.9998 1.66654 14.9998H2.49988V8.33313H2.25654C1.84251 8.33572 1.43572 8.22456 1.08054 8.01177C0.725355 7.79899 0.435427 7.49275 0.242378 7.12647ZM4.16654 14.9998H6.66655V8.33313H4.16654V14.9998ZM8.33321 8.33313V14.9998H11.6665V8.33313H8.33321ZM15.8332 8.33313H13.3332V14.9998H15.8332V8.33313ZM1.71904 6.35397C1.77133 6.45037 1.84914 6.53052 1.94395 6.58564C2.03875 6.64076 2.1469 6.66872 2.25654 6.66647H17.7432C17.8529 6.66872 17.961 6.64076 18.0558 6.58564C18.1506 6.53052 18.2284 6.45037 18.2807 6.35397C18.3188 6.29027 18.3372 6.21674 18.3337 6.14261C18.3301 6.06848 18.3047 5.99706 18.2607 5.9373C18.0588 5.63723 17.7875 5.39025 17.4699 5.2173L11.2199 1.96147C10.8432 1.76599 10.4251 1.66395 10.0007 1.66395C9.57635 1.66395 9.15821 1.76599 8.78155 1.96147L2.53154 5.2173C2.21403 5.39081 1.94282 5.63801 1.74071 5.93813C1.69662 5.99764 1.67105 6.06882 1.66719 6.14279C1.66334 6.21675 1.68138 6.2902 1.71904 6.35397Z" fill="#C4C4C4"/>
</svg>
