<svg width="28" height="28" viewBox="0 0 28 28" fill="none" xmlns="http://www.w3.org/2000/svg">
<rect x="0.666504" y="9.55566" width="26.6667" height="1.33333" fill="white"/>
<path fill-rule="evenodd" clip-rule="evenodd" d="M27.3332 5.55583C27.3332 4.08307 26.1393 2.88916 24.6665 2.88916H3.33317C1.86041 2.88916 0.666504 4.08307 0.666504 5.55583V24.6669C0.666504 26.1396 1.86041 27.3335 3.33317 27.3335H24.6665C26.1393 27.3335 27.3332 26.1396 27.3332 24.6669V5.55583ZM3.33317 4.22249H24.6665L24.822 4.23146C25.4851 4.30848 25.9998 4.87205 25.9998 5.55583V24.6669L25.9909 24.8224C25.9138 25.4855 25.3503 26.0002 24.6665 26.0002H3.33317L3.17768 25.9912C2.51456 25.9142 1.99984 25.3507 1.99984 24.6669V5.55583L2.00881 5.40033C2.08583 4.73721 2.64939 4.22249 3.33317 4.22249Z" fill="white"/>
<rect x="6.15527" y="0.666748" width="1.33333" height="6.66667" rx="0.5" fill="white"/>
<rect x="20.5063" y="0.666748" width="1.33333" height="6.66667" rx="0.5" fill="white"/>
<path d="M20.1948 13.3167C20.4549 13.0562 20.877 13.0559 21.1376 13.316C21.3692 13.5473 21.3951 13.9065 21.2153 14.1664L21.1382 14.2588L11.7828 23.6278C11.5523 23.8586 11.1945 23.8853 10.9346 23.7071L10.8422 23.6307L6.86435 19.6961C6.60258 19.4372 6.60027 19.0151 6.8592 18.7533C7.08935 18.5206 7.44844 18.4929 7.70924 18.6715L7.80199 18.7481L11.3078 22.2161L20.1948 13.3167Z" fill="white"/>
</svg>
