<svg width="27" height="27" viewBox="0 0 27 27" fill="none" xmlns="http://www.w3.org/2000/svg">
<path fill-rule="evenodd" clip-rule="evenodd" d="M12.2145 2.57139C12.2145 1.50627 11.351 0.642822 10.2859 0.642822H2.57164C1.50652 0.642822 0.643066 1.50627 0.643066 2.57139V7.07139C0.643066 8.13651 1.50652 8.99996 2.57164 8.99996H10.2859C11.351 8.99996 12.2145 8.13651 12.2145 7.07139V2.57139ZM2.57164 1.92854H10.2859L10.4015 1.93889C10.7014 1.99333 10.9288 2.2558 10.9288 2.57139V7.07139L10.9184 7.18695C10.864 7.48684 10.6015 7.71425 10.2859 7.71425H2.57164L2.45608 7.70389C2.15619 7.64946 1.92878 7.38698 1.92878 7.07139V2.57139L1.93914 2.45584C1.99357 2.15595 2.25605 1.92854 2.57164 1.92854Z" fill="white"/>
<path fill-rule="evenodd" clip-rule="evenodd" d="M26.3576 19.9286C26.3576 18.8635 25.4941 18 24.429 18H16.7147C15.6496 18 14.7861 18.8635 14.7861 19.9286V24.4286C14.7861 25.4937 15.6496 26.3571 16.7147 26.3571H24.429C25.4941 26.3571 26.3576 25.4937 26.3576 24.4286V19.9286ZM16.7147 19.2857H24.429L24.5445 19.2961C24.8444 19.3505 25.0718 19.613 25.0718 19.9286V24.4286L25.0615 24.5441C25.0071 24.844 24.7446 25.0714 24.429 25.0714H16.7147L16.5991 25.0611C16.2993 25.0066 16.0718 24.7442 16.0718 24.4286V19.9286L16.0822 19.813C16.1366 19.5131 16.3991 19.2857 16.7147 19.2857Z" fill="white"/>
<path fill-rule="evenodd" clip-rule="evenodd" d="M26.3576 2.57139C26.3576 1.50627 25.4941 0.642822 24.429 0.642822H16.7147C15.6496 0.642822 14.7861 1.50627 14.7861 2.57139V13.4988C14.7861 14.5639 15.6496 15.4273 16.7147 15.4273H24.429C25.4941 15.4273 26.3576 14.5639 26.3576 13.4988V2.57139ZM16.7147 1.92854H24.429L24.5445 1.93889C24.8444 1.99333 25.0718 2.2558 25.0718 2.57139V13.4988L25.0615 13.6143C25.0071 13.9142 24.7446 14.1416 24.429 14.1416H16.7147L16.5991 14.1313C16.2993 14.0768 16.0718 13.8144 16.0718 13.4988V2.57139L16.0822 2.45584C16.1366 2.15595 16.3991 1.92854 16.7147 1.92854Z" fill="white"/>
<path fill-rule="evenodd" clip-rule="evenodd" d="M12.2145 13.5011C12.2145 12.436 11.351 11.5725 10.2859 11.5725H2.57164C1.50652 11.5725 0.643066 12.436 0.643066 13.5011V24.4285C0.643066 25.4936 1.50652 26.357 2.57164 26.357H10.2859C11.351 26.357 12.2145 25.4936 12.2145 24.4285V13.5011ZM2.57164 12.8582H10.2859L10.4015 12.8686C10.7014 12.923 10.9288 13.1855 10.9288 13.5011V24.4285L10.9184 24.544C10.864 24.8439 10.6015 25.0713 10.2859 25.0713H2.57164L2.45608 25.061C2.15619 25.0065 1.92878 24.7441 1.92878 24.4285V13.5011L1.93914 13.3855C1.99357 13.0856 2.25605 12.8582 2.57164 12.8582Z" fill="white"/>
</svg>
