<svg width="50" height="46" viewBox="0 0 50 46" fill="none" xmlns="http://www.w3.org/2000/svg">
<path d="M21.0944 34.5189C18.9447 34.5189 16.7952 33.8445 15.0011 32.4951L8.59375 27.6901C7.73076 27.0429 7.55586 25.8187 8.20303 24.9557C8.85019 24.0928 10.0743 23.9177 10.9374 24.565L17.347 29.3716C19.554 31.0316 22.6336 31.0316 24.8383 29.3733L31.25 24.565C32.1128 23.9177 33.3371 24.0928 33.9844 24.9557C34.6315 25.8187 34.4565 27.0429 33.5937 27.6901L27.1842 32.4967C25.3921 33.8447 23.2432 34.5189 21.0944 34.5189ZM42.1875 34.1353V23.8765C42.1875 17.4148 36.9305 12.1578 30.4688 12.1578H11.7188C5.25703 12.1578 0 17.4148 0 23.8765V34.1354C0 40.5971 5.25703 45.8542 11.7188 45.8542H30.4688C36.9305 45.8541 42.1875 40.597 42.1875 34.1353ZM30.4688 16.064C34.7766 16.064 38.2812 19.5687 38.2812 23.8765V34.1354C38.2812 38.4432 34.7766 41.9479 30.4688 41.9479H11.7188C7.41094 41.9479 3.90625 38.4432 3.90625 34.1354V23.8765C3.90625 19.5687 7.41094 16.064 11.7188 16.064H30.4688ZM50 27.0992V11.8648C50 5.40309 44.743 0.146057 38.2812 0.146057H19.5312C15.6949 0.146057 12.0957 2.02926 9.90342 5.18375C9.28779 6.06949 9.50674 7.28658 10.3926 7.90221C11.2782 8.51774 12.4954 8.29879 13.111 7.41305C14.5735 5.30865 16.9736 4.05231 19.5312 4.05231H38.2812C42.5891 4.05231 46.0938 7.55699 46.0938 11.8648V27.0992C46.0938 28.1779 46.9682 29.0523 48.0469 29.0523C49.1256 29.0523 50 28.1779 50 27.0992Z" fill="white"/>
</svg>
