<svg width="26" height="23" viewBox="0 0 26 23" fill="none" xmlns="http://www.w3.org/2000/svg">
<path d="M18.7746 15.6893C18.7889 15.5063 18.9828 15.3678 19.2051 15.3678H20.1516C20.3042 15.3678 20.4252 15.26 20.4118 15.1345C20.077 11.9874 17.0294 9.47251 13.2158 9.19614C13.0638 9.18513 12.9332 9.28492 12.9332 9.41089V10.192C12.9332 10.3754 12.7654 10.5355 12.5436 10.5472C12.3006 10.5601 12.0988 10.4014 12.0988 10.2037V9.41089C12.0988 9.28497 11.9682 9.18513 11.8162 9.19614C8.00261 9.47247 4.95509 11.9874 4.6202 15.1345C4.60685 15.26 4.72778 15.3678 4.88042 15.3678H5.82685C6.0491 15.3678 6.24309 15.5063 6.25733 15.6893C6.27292 15.8898 6.08065 16.0563 5.84103 16.0563H4.88037C4.72778 16.0563 4.6068 16.1641 4.62015 16.2896C4.95499 19.4367 8.00251 21.9516 11.8161 22.2279C11.9681 22.239 12.0988 22.1392 12.0988 22.0132V21.2321C12.0988 21.0487 12.2666 20.8886 12.4884 20.8769C12.7314 20.864 12.9331 21.0227 12.9331 21.2204V22.0132C12.9331 22.1391 13.0638 22.239 13.2158 22.2279C17.0293 21.9516 20.0769 19.4367 20.4117 16.2896C20.4251 16.1641 20.3042 16.0563 20.1515 16.0563H19.1909C18.9513 16.0563 18.759 15.8898 18.7746 15.6893ZM17.3579 13.5212C17.3579 13.7058 17.1811 13.8508 16.9809 13.8637C16.9538 13.8663 17.0523 13.8654 15.1857 13.8654C14.9639 13.8654 14.7696 13.7276 14.7547 13.545C14.7383 13.3445 14.9308 13.1769 15.1708 13.1769H15.7492C15.8175 13.1769 15.8517 13.1088 15.8034 13.0689L15.8015 13.0673C14.0111 11.59 11.095 11.5485 9.29306 13.0162C7.478 14.4947 7.46971 16.9033 9.27131 18.3901C11.0642 19.8696 13.9667 19.87 15.7611 18.3901C15.9238 18.2554 16.1882 18.2554 16.3509 18.3901C16.5136 18.5244 16.5136 18.7426 16.3509 18.8768C15.3267 19.722 13.9646 20.1876 12.5159 20.1876C9.51849 20.1876 7.09258 18.1861 7.09258 15.7121C7.09258 13.2358 9.52319 11.2322 12.5256 11.2365C13.9778 11.2386 15.3653 11.734 16.3922 12.5814L16.3926 12.5818C16.4409 12.6216 16.5235 12.5934 16.5235 12.5371V12.0723C16.5235 11.8889 16.6913 11.7288 16.913 11.7171C17.1561 11.7042 17.3578 11.8629 17.3578 12.0606V13.5212H17.3579ZM13.3504 16.4006C13.087 16.4006 12.8899 16.2022 12.9415 15.9887L13.3587 14.2674C13.4036 14.081 13.6231 13.9601 13.8494 13.9976C14.0752 14.0346 14.2218 14.2162 14.1764 14.4025L13.9216 15.4547C13.8894 15.5878 14.0128 15.712 14.1773 15.712H14.7584C14.9023 15.712 15.0191 15.6157 15.0191 15.4969V15.0352C15.0191 14.8518 15.1869 14.6917 15.4087 14.68C15.6517 14.6671 15.8535 14.8257 15.8535 15.0235V17.0774C15.8535 17.2608 15.6856 17.4209 15.4639 17.4327C15.2209 17.4455 15.0191 17.2869 15.0191 17.0891V16.6158C15.0191 16.4969 14.9023 16.4006 14.7584 16.4006H13.3504ZM10.8473 14.6792H10.421C10.1903 14.6792 10.0153 14.8368 10.0129 15.0272C10.0104 15.2199 9.81647 15.3744 9.5806 15.3676C9.34453 15.3607 9.17182 15.1859 9.17912 14.9911C9.19998 14.4367 9.75326 13.9907 10.43 13.9907H10.8472C12.0357 13.9907 12.5525 15.2344 11.6164 15.8515L10.8438 16.3617C10.6514 16.4888 10.7603 16.7449 11.0067 16.7449H11.6673C11.8896 16.7449 12.0836 16.8834 12.0978 17.0664C12.1134 17.267 11.9212 17.4335 11.6815 17.4335H9.59562C9.36523 17.4335 9.17844 17.2793 9.17844 17.0892V16.7449C9.17844 16.6403 9.2358 16.5414 9.33488 16.4759L11.0954 15.314C11.4172 15.101 11.2488 14.6792 10.8473 14.6792Z" fill="white"/>
<path d="M23.3622 1.59682H21.2763V1.25255C21.2763 0.683205 20.7147 0.219727 20.0247 0.219727C19.3348 0.219727 18.7732 0.683205 18.7732 1.25255V1.59682H6.25773V1.25255C6.25773 0.683205 5.6961 0.219727 5.00619 0.219727C4.31627 0.219727 3.75464 0.683205 3.75464 1.25255V1.59682H1.66873C0.748321 1.59682 0 2.21436 0 2.97392V17.4334C0 18.193 0.748321 18.8105 1.66873 18.8105H4.17182C4.40232 18.8105 4.58901 18.6564 4.58901 18.4662C4.58901 18.276 4.40232 18.122 4.17182 18.122H1.66873C1.20879 18.122 0.834365 17.813 0.834365 17.4334V5.72811H24.1966V17.4334C24.1966 17.813 23.8222 18.122 23.3622 18.122H20.8591C20.6286 18.122 20.4419 18.276 20.4419 18.4662C20.4419 18.6564 20.6286 18.8105 20.8591 18.8105H23.3622C24.2826 18.8105 25.0309 18.193 25.0309 17.4334V2.97392C25.0309 2.21436 24.2826 1.59682 23.3622 1.59682ZM5.42337 2.97392C5.42337 3.1637 5.23616 3.31819 5.00619 3.31819C4.77622 3.31819 4.58901 3.1637 4.58901 2.97392V1.25255C4.58901 1.06277 4.77622 0.908274 5.00619 0.908274C5.23616 0.908274 5.42337 1.06277 5.42337 1.25255V2.97392ZM20.4419 2.97392C20.4419 3.1637 20.2547 3.31819 20.0247 3.31819C19.7948 3.31819 19.6076 3.1637 19.6076 2.97392V1.25255C19.6076 1.06277 19.7948 0.908274 20.0247 0.908274C20.2547 0.908274 20.4419 1.06277 20.4419 1.25255V2.97392Z" fill="white"/>
</svg>
