<svg width="27" height="27" viewBox="0 0 27 27" fill="none" xmlns="http://www.w3.org/2000/svg">
<rect y="8.88892" width="26.6667" height="1.33333" fill="white"/>
<path fill-rule="evenodd" clip-rule="evenodd" d="M26.6667 4.88883C26.6667 3.41608 25.4728 2.22217 24 2.22217H2.66667C1.19391 2.22217 0 3.41608 0 4.88883V23.9999C0 25.4726 1.19391 26.6665 2.66667 26.6665H24C25.4728 26.6665 26.6667 25.4726 26.6667 23.9999V4.88883ZM2.66667 3.5555H24L24.1555 3.56447C24.8186 3.64149 25.3333 4.20505 25.3333 4.88883V23.9999L25.3244 24.1554C25.2473 24.8185 24.6838 25.3332 24 25.3332H2.66667L2.51117 25.3242C1.84805 25.2472 1.33333 24.6837 1.33333 23.9999V4.88883L1.3423 4.73334C1.41932 4.07022 1.98289 3.5555 2.66667 3.5555Z" fill="white"/>
<rect x="5.48877" width="1.33333" height="6.66667" rx="0.5" fill="white"/>
<rect x="19.8398" width="1.33333" height="6.66667" rx="0.5" fill="white"/>
<circle cx="8.8335" cy="17.5" r="1.5" fill="white"/>
<circle cx="12.8335" cy="17.5" r="1.5" fill="white"/>
<circle cx="16.8335" cy="17.5" r="1.5" fill="white"/>
</svg>
