<svg width="27" height="27" viewBox="0 0 27 27" fill="none" xmlns="http://www.w3.org/2000/svg">
<path d="M19.6378 5.46943C20.0693 5.46943 20.4191 5.11961 20.4191 4.68809C20.4191 4.25656 20.0693 3.90674 19.6378 3.90674C19.2063 3.90674 18.8564 4.25656 18.8564 4.68809C18.8564 5.11961 19.2063 5.46943 19.6378 5.46943Z" fill="white"/>
<path d="M9.7619 16.1492C10.5965 15.3885 11.043 14.3622 11.043 13.283C11.043 11.1232 9.24418 9.37622 7.08422 9.37622C4.92447 9.37622 3.12539 11.123 3.12539 13.283C3.12539 14.356 3.56716 15.3838 4.40659 16.1491C1.82403 17.1996 0 19.7217 0 22.6591V25.8887C0 26.3202 0.349835 26.67 0.781348 26.67H13.3871C13.8186 26.67 14.1684 26.3202 14.1684 25.8887V22.6591C14.1684 19.7217 12.3444 17.1996 9.7619 16.1492ZM7.08422 10.9389C8.38308 10.9389 9.48035 12.0123 9.48035 13.283C9.48035 14.5536 8.38308 15.627 7.08422 15.627C5.78536 15.627 4.68809 14.5536 4.68809 13.283C4.68809 12.0123 5.78536 10.9389 7.08422 10.9389ZM12.6057 25.1074H1.5627V22.6591C1.5627 19.6433 4.03967 17.1897 7.08427 17.1897C10.1288 17.1897 12.6057 19.6433 12.6057 22.6591V25.1074Z" fill="white"/>
<path d="M19.6381 0C15.7606 0 12.606 3.15461 12.606 7.03213C12.606 8.24197 12.9147 9.42227 13.5018 10.4689L12.6461 13.0358C12.5559 13.3064 12.6203 13.6045 12.814 13.8138C13.0082 14.0234 13.3007 14.1099 13.5769 14.0409L16.4781 13.3156C17.4534 13.8062 18.5392 14.0643 19.6381 14.0643C23.5156 14.0643 26.6703 10.9096 26.6703 7.03213C26.6703 3.15461 23.5156 0 19.6381 0ZM19.6381 12.5016C18.6999 12.5016 17.7748 12.2602 16.9625 11.8037C16.7886 11.7059 16.5838 11.6784 16.3902 11.7268L14.5788 12.1797L15.0976 10.6235C15.1718 10.4006 15.1419 10.1561 15.0161 9.95776C14.4617 9.08405 14.1687 8.07242 14.1687 7.03213C14.1687 4.01628 16.6223 1.5627 19.6381 1.5627C22.654 1.5627 25.1076 4.01628 25.1076 7.03213C25.1076 10.048 22.654 12.5016 19.6381 12.5016Z" fill="white"/>
<path d="M19.6378 6.25073C19.2063 6.25073 18.8564 6.60057 18.8564 7.03208V10.1575C18.8564 10.589 19.2063 10.9388 19.6378 10.9388C20.0693 10.9388 20.4191 10.589 20.4191 10.1575V7.03208C20.4191 6.60057 20.0693 6.25073 19.6378 6.25073Z" fill="white"/>
</svg>
