<svg width="67" height="67" viewBox="0 0 67 67" fill="none" xmlns="http://www.w3.org/2000/svg">
<circle cx="33.5" cy="33.5" r="33.5" fill="#F5B51B"/>
<g clip-path="url(#clip0)">
<path d="M44.6499 15.6284L26.0848 34.1935C25.3757 34.8987 24.8136 35.7376 24.4309 36.6616C24.0483 37.5855 23.8527 38.5762 23.8555 39.5763V41.6213C23.8555 42.0252 24.0159 42.4125 24.3015 42.698C24.5871 42.9836 24.9744 43.144 25.3782 43.144H27.4232C28.4233 43.1469 29.414 42.9513 30.338 42.5686C31.262 42.186 32.1008 41.6238 32.8061 40.9148L51.3712 22.3497C52.2611 21.4576 52.7608 20.249 52.7608 18.989C52.7608 17.729 52.2611 16.5204 51.3712 15.6284C50.4662 14.7633 49.2625 14.2805 48.0105 14.2805C46.7586 14.2805 45.5549 14.7633 44.6499 15.6284ZM49.218 20.1965L30.653 38.7616C29.7943 39.615 28.6338 40.0954 27.4232 40.0986H26.901V39.5763C26.9041 38.3657 27.3845 37.2052 28.2379 36.3466L46.803 17.7815C47.1282 17.4708 47.5607 17.2974 48.0105 17.2974C48.4603 17.2974 48.8928 17.4708 49.218 17.7815C49.5377 18.1021 49.7173 18.5363 49.7173 18.989C49.7173 19.4417 49.5377 19.876 49.218 20.1965Z" fill="white"/>
<path d="M51.2649 27.8847C50.8611 27.8847 50.4738 28.0452 50.1882 28.3307C49.9026 28.6163 49.7422 29.0036 49.7422 29.4075V37.0531H43.6513C42.4397 37.0531 41.2778 37.5344 40.4211 38.3911C39.5644 39.2478 39.0831 40.4097 39.0831 41.6213V47.7122H23.8558C22.6443 47.7122 21.4823 47.2309 20.6256 46.3742C19.7689 45.5175 19.2876 44.3555 19.2876 43.144V21.8258C19.2876 20.6142 19.7689 19.4523 20.6256 18.5956C21.4823 17.7389 22.6443 17.2576 23.8558 17.2576H37.6243C38.0282 17.2576 38.4155 17.0972 38.7011 16.8116C38.9866 16.526 39.1471 16.1387 39.1471 15.7349C39.1471 15.331 38.9866 14.9437 38.7011 14.6582C38.4155 14.3726 38.0282 14.2122 37.6243 14.2122H23.8558C21.8373 14.2146 19.9022 15.0175 18.4748 16.4448C17.0475 17.8721 16.2446 19.8073 16.2422 21.8258L16.2422 43.144C16.2446 45.1625 17.0475 47.0977 18.4748 48.525C19.9022 49.9523 21.8373 50.7552 23.8558 50.7576H41.1281C42.1284 50.7605 43.1194 50.5649 44.0436 50.1823C44.9678 49.7996 45.807 49.2375 46.5125 48.5283L50.5569 44.4809C51.2661 43.7757 51.8284 42.9369 52.2113 42.0129C52.5942 41.089 52.7901 40.0982 52.7876 39.0981V29.4075C52.7876 29.0036 52.6272 28.6163 52.3416 28.3307C52.0561 28.0452 51.6688 27.8847 51.2649 27.8847ZM44.3593 46.3752C43.7472 46.9858 42.9732 47.4085 42.1286 47.5934V41.6213C42.1286 41.2174 42.289 40.8301 42.5745 40.5445C42.8601 40.259 43.2474 40.0985 43.6513 40.0985H49.628C49.4396 40.9414 49.0174 41.714 48.4098 42.3278L44.3593 46.3752Z" fill="white"/>
</g>
<defs>
<clipPath id="clip0">
<rect width="36.5455" height="36.5455" fill="white" transform="translate(16.2422 14.2122)"/>
</clipPath>
</defs>
</svg>
