<svg width="42" height="50" viewBox="0 0 42 50" fill="none" xmlns="http://www.w3.org/2000/svg">
<path d="M35.5837 17.55V14.5833C35.5837 10.7156 34.0472 7.00627 31.3123 4.27136C28.5774 1.53645 24.8681 0 21.0003 0C17.1326 0 13.4233 1.53645 10.6884 4.27136C7.95345 7.00627 6.41699 10.7156 6.41699 14.5833V17.55C4.56149 18.3598 2.98219 19.6928 1.8722 21.3859C0.762212 23.079 0.169655 25.0588 0.166992 27.0833V39.5833C0.1703 42.345 1.26883 44.9926 3.22162 46.9454C5.1744 48.8982 7.822 49.9967 10.5837 50H31.417C34.1786 49.9967 36.8263 48.8982 38.779 46.9454C40.7318 44.9926 41.8304 42.345 41.8337 39.5833V27.0833C41.831 25.0588 41.2384 23.079 40.1285 21.3859C39.0185 19.6928 37.4392 18.3598 35.5837 17.55ZM10.5837 14.5833C10.5837 11.8207 11.6811 9.17114 13.6346 7.21764C15.5881 5.26413 18.2377 4.16667 21.0003 4.16667C23.763 4.16667 26.4125 5.26413 28.366 7.21764C30.3195 9.17114 31.417 11.8207 31.417 14.5833V16.6667H10.5837V14.5833ZM37.667 39.5833C37.667 41.2409 37.0085 42.8306 35.8364 44.0028C34.6643 45.1749 33.0746 45.8333 31.417 45.8333H10.5837C8.92606 45.8333 7.33634 45.1749 6.16424 44.0028C4.99214 42.8306 4.33366 41.2409 4.33366 39.5833V27.0833C4.33366 25.4257 4.99214 23.836 6.16424 22.6639C7.33634 21.4918 8.92606 20.8333 10.5837 20.8333H31.417C33.0746 20.8333 34.6643 21.4918 35.8364 22.6639C37.0085 23.836 37.667 25.4257 37.667 27.0833V39.5833Z" fill="white"/>
</svg>
