<svg width="31" height="31" viewBox="0 0 31 31" fill="none" xmlns="http://www.w3.org/2000/svg">
<path d="M11.341 10.3723L14.5311 7.18219V21.3124C14.5311 21.8471 14.9651 22.2811 15.4999 22.2811C16.0346 22.2811 16.4686 21.8471 16.4686 21.3124V7.18219L19.6587 10.3723C19.8476 10.5617 20.0956 10.6561 20.3436 10.6561C20.5916 10.6561 20.8396 10.5617 21.0285 10.3723C21.4068 9.99399 21.4068 9.38077 21.0285 9.00247L16.1848 4.15872C15.807 3.78043 15.1928 3.78043 14.815 4.15872L9.97122 9.00247C9.59293 9.38077 9.59293 9.99399 9.97122 10.3723C10.349 10.7506 10.9632 10.7506 11.341 10.3723Z" fill="#969696"/>
<path d="M24.2188 19.375C23.684 19.375 23.25 19.809 23.25 20.3438V24.2188C23.25 24.753 22.8155 25.1875 22.2812 25.1875H8.71875C8.18448 25.1875 7.75 24.753 7.75 24.2188V20.3438C7.75 19.809 7.316 19.375 6.78125 19.375C6.2465 19.375 5.8125 19.809 5.8125 20.3438V24.2188C5.8125 25.8215 7.11595 27.125 8.71875 27.125H22.2812C23.884 27.125 25.1875 25.8215 25.1875 24.2188V20.3438C25.1875 19.809 24.7535 19.375 24.2188 19.375Z" fill="#969696"/>
</svg>
