<svg width="32" height="33" viewBox="0 0 32 33" fill="none" xmlns="http://www.w3.org/2000/svg">
<path d="M31.75 2.50781C31.75 2.01562 31.5391 1.59375 31.1875 1.24219C30.8359 0.960938 30.4141 0.75 29.9922 0.75H2.00781C1.44531 0.75 1.02344 0.960938 0.742188 1.24219C0.390625 1.59375 0.25 2.01562 0.25 2.50781V30.4922C0.25 30.9844 0.390625 31.4062 0.742188 31.7578C1.02344 32.1094 1.44531 32.25 2.00781 32.25H17.0547V20.0156H12.9766V15.3047H17.0547V11.7891C17.0547 9.82031 17.6172 8.27344 18.7422 7.14844C19.8672 6.09375 21.3438 5.53125 23.1719 5.53125C24.5781 5.53125 25.8438 5.60156 26.8281 5.67188V9.96094H24.2969C23.3828 9.96094 22.75 10.1719 22.3984 10.5938C22.1172 10.9453 21.9766 11.5078 21.9766 12.2812V15.3047H26.6875L26.0547 20.0156H21.9766V32.25H29.9922C30.4844 32.25 30.9062 32.1094 31.2578 31.7578C31.5391 31.4062 31.75 30.9844 31.75 30.4922V2.50781Z" fill="#999999"/>
</svg>
