<svg width="35" height="35" viewBox="0 0 35 35" fill="none" xmlns="http://www.w3.org/2000/svg">
<path d="M34.6562 17.9219C34.6562 17.0078 34.5156 16.0234 34.375 14.9688H17.7812V21.0156H27.6953C27.4844 22.0703 27.0625 23.125 26.5 24.1094C25.6562 25.375 24.6016 26.4297 23.3359 27.1328C21.7188 28.1172 19.8906 28.5391 17.7812 28.5391C15.8125 28.5391 13.9844 28.0469 12.3672 27.0625C10.6797 26.0781 9.41406 24.7422 8.42969 23.0547C7.44531 21.3672 6.95312 19.5391 6.95312 17.5C6.95312 15.1797 7.58594 13.0703 8.85156 11.2422C9.97656 9.55469 11.5234 8.28906 13.4922 7.44531C15.3906 6.60156 17.3594 6.32031 19.3281 6.60156C21.4375 6.88281 23.1953 7.79688 24.7422 9.20312L29.4531 4.63281C26.2188 1.60938 22.2812 0.0625 17.7812 0.0625C14.6172 0.0625 11.7344 0.90625 9.0625 2.45312C6.39062 4 4.21094 6.10938 2.66406 8.78125C1.11719 11.4531 0.34375 14.4062 0.34375 17.5C0.34375 20.6641 1.11719 23.5469 2.66406 26.2188C4.21094 28.8906 6.39062 31.0703 9.0625 32.6172C11.7344 34.1641 14.6172 34.9375 17.7812 34.9375C21.0859 34.9375 24.0391 34.2344 26.5703 32.7578C29.1016 31.3516 31.1406 29.3125 32.5469 26.7109C33.9531 24.1797 34.6562 21.2266 34.6562 17.9219Z" fill="#999999"/>
</svg>
