<svg width="32" height="33" viewBox="0 0 32 33" fill="none" xmlns="http://www.w3.org/2000/svg">
<path d="M16 8.41406C17.4062 8.41406 18.7422 8.83594 20.0078 9.53906C21.2734 10.2422 22.2578 11.2266 22.9609 12.4922C23.6641 13.7578 24.0859 15.0938 24.0859 16.5C24.0859 17.9766 23.6641 19.3125 22.9609 20.5781C22.2578 21.8438 21.2734 22.8281 20.0078 23.5312C18.7422 24.2344 17.4062 24.5859 16 24.5859C14.5234 24.5859 13.1875 24.2344 11.9219 23.5312C10.6562 22.8281 9.67188 21.8438 8.96875 20.5781C8.26562 19.3125 7.91406 17.9766 7.91406 16.5C7.91406 15.0938 8.26562 13.7578 8.96875 12.4922C9.67188 11.2266 10.6562 10.2422 11.9219 9.53906C13.1875 8.83594 14.5234 8.41406 16 8.41406ZM16 21.7734C17.4062 21.7734 18.6719 21.2812 19.7266 20.2266C20.7109 19.2422 21.2734 17.9766 21.2734 16.5C21.2734 15.0938 20.7109 13.8281 19.7266 12.7734C18.6719 11.7891 17.4062 11.2266 16 11.2266C14.5234 11.2266 13.2578 11.7891 12.2734 12.7734C11.2188 13.8281 10.7266 15.0938 10.7266 16.5C10.7266 17.9766 11.2188 19.2422 12.2734 20.2266C13.2578 21.2812 14.5234 21.7734 16 21.7734ZM26.3359 8.0625C26.3359 7.57031 26.125 7.14844 25.7734 6.72656C25.3516 6.375 24.9297 6.16406 24.4375 6.16406C23.875 6.16406 23.4531 6.375 23.1016 6.72656C22.6797 7.14844 22.5391 7.57031 22.5391 8.0625C22.5391 8.625 22.6797 9.04688 23.1016 9.39844C23.4531 9.82031 23.875 9.96094 24.4375 9.96094C24.9297 9.96094 25.3516 9.82031 25.7031 9.39844C26.0547 9.04688 26.2656 8.625 26.3359 8.0625ZM31.6797 9.96094C31.6797 11.2969 31.75 13.4766 31.75 16.5C31.75 19.5938 31.6797 21.7734 31.6094 23.1094C31.5391 24.4453 31.3281 25.5703 31.0469 26.5547C30.625 27.75 29.9219 28.8047 29.0781 29.6484C28.2344 30.4922 27.1797 31.125 26.0547 31.5469C25.0703 31.8984 23.875 32.1094 22.5391 32.1797C21.2031 32.25 19.0234 32.25 16 32.25C12.9062 32.25 10.7266 32.25 9.39062 32.1797C8.05469 32.1094 6.92969 31.8984 5.94531 31.4766C4.75 31.125 3.69531 30.4922 2.85156 29.6484C2.00781 28.8047 1.375 27.75 0.953125 26.5547C0.601562 25.5703 0.390625 24.4453 0.320312 23.1094C0.25 21.7734 0.25 19.5938 0.25 16.5C0.25 13.4766 0.25 11.2969 0.320312 9.96094C0.390625 8.625 0.601562 7.42969 0.953125 6.44531C1.375 5.32031 2.00781 4.26562 2.85156 3.42188C3.69531 2.57812 4.75 1.875 5.94531 1.45312C6.92969 1.17188 8.05469 0.960938 9.39062 0.890625C10.7266 0.820312 12.9062 0.75 16 0.75C19.0234 0.75 21.2031 0.820312 22.5391 0.890625C23.875 0.960938 25.0703 1.17188 26.0547 1.45312C27.1797 1.875 28.2344 2.57812 29.0781 3.42188C29.9219 4.26562 30.625 5.32031 31.0469 6.44531C31.3281 7.42969 31.5391 8.625 31.6797 9.96094ZM28.3047 25.7812C28.5859 25.0078 28.7266 23.7422 28.8672 21.9844C28.8672 21 28.9375 19.5234 28.9375 17.625V15.375C28.9375 13.4766 28.8672 12 28.8672 11.0156C28.7266 9.25781 28.5859 7.99219 28.3047 7.21875C27.7422 5.8125 26.6875 4.75781 25.2812 4.19531C24.5078 3.91406 23.2422 3.77344 21.4844 3.63281C20.4297 3.63281 18.9531 3.5625 17.125 3.5625H14.875C12.9766 3.5625 11.5 3.63281 10.5156 3.63281C8.75781 3.77344 7.49219 3.91406 6.71875 4.19531C5.24219 4.75781 4.25781 5.8125 3.69531 7.21875C3.41406 7.99219 3.20312 9.25781 3.13281 11.0156C3.0625 12.0703 3.0625 13.5469 3.0625 15.375V17.625C3.0625 19.5234 3.0625 21 3.13281 21.9844C3.20312 23.7422 3.41406 25.0078 3.69531 25.7812C4.25781 27.2578 5.3125 28.2422 6.71875 28.8047C7.49219 29.0859 8.75781 29.2969 10.5156 29.3672C11.5 29.4375 12.9766 29.4375 14.875 29.4375H17.125C19.0234 29.4375 20.5 29.4375 21.4844 29.3672C23.2422 29.2969 24.5078 29.0859 25.2812 28.8047C26.6875 28.2422 27.7422 27.1875 28.3047 25.7812Z" fill="#999999"/>
</svg>
