<svg width="35" height="35" viewBox="0 0 35 35" fill="none" xmlns="http://www.w3.org/2000/svg">
<path d="M34.9375 17.5C34.9375 14.4062 34.0938 11.4531 32.5469 8.78125C31 6.10938 28.8906 4 26.2188 2.45312C23.5469 0.90625 20.5938 0.0625 17.5 0.0625C14.3359 0.0625 11.4531 0.90625 8.78125 2.45312C6.10938 4 3.92969 6.10938 2.38281 8.78125C0.835938 11.4531 0.0625 14.4062 0.0625 17.5C0.0625 21.1562 1.04688 24.4609 3.08594 27.4141C5.125 30.3672 7.79688 32.4766 11.1719 33.7422C10.8906 31.6328 10.9609 29.9453 11.2422 28.75L13.2109 20.1016C12.8594 19.3984 12.7188 18.5547 12.7188 17.5C12.7188 16.3047 13 15.3203 13.6328 14.4766C14.1953 13.7031 14.9688 13.2812 15.8828 13.2812C16.5859 13.2812 17.0781 13.5625 17.5 13.9844C17.8516 14.4062 18.0625 14.9688 18.0625 15.6719C18.0625 16.375 17.7812 17.5703 17.2891 19.2578C16.9375 20.2422 16.7266 21.0156 16.6562 21.5078C16.4453 22.3516 16.5859 23.125 17.1484 23.7578C17.6406 24.3906 18.3438 24.6719 19.2578 24.6719C20.8047 24.6719 22.0703 23.9688 23.125 22.4219C24.1797 20.9453 24.7422 19.0469 24.7422 16.6562C24.7422 14.6172 24.0391 12.9297 22.7031 11.5938C21.2969 10.2578 19.5391 9.55469 17.4297 9.55469C15.8125 9.55469 14.4062 9.97656 13.2109 10.6797C12.0156 11.3828 11.1016 12.3672 10.4688 13.4922C9.83594 14.6172 9.55469 15.8828 9.55469 17.1484C9.55469 17.9219 9.625 18.6953 9.90625 19.3984C10.1172 20.1016 10.3984 20.7344 10.8203 21.1562C10.9609 21.2969 10.9609 21.5078 10.9609 21.6484L10.4688 23.6172C10.3984 23.8984 10.1875 23.9688 9.90625 23.8281C8.85156 23.4062 8.00781 22.4922 7.30469 21.1562C6.60156 19.8203 6.32031 18.4844 6.32031 17.0781C6.32031 15.25 6.74219 13.4922 7.65625 11.875C8.57031 10.2578 9.83594 8.99219 11.5234 8.00781C13.3516 7.02344 15.4609 6.53125 17.8516 6.53125C19.8203 6.53125 21.6484 7.02344 23.3359 7.86719C24.9531 8.71094 26.2188 9.90625 27.2031 11.4531C28.1172 13 28.6094 14.7578 28.6094 16.7266C28.6094 18.6953 28.1875 20.4531 27.4141 22.0703C26.6406 23.7578 25.5859 25.0234 24.1797 26.0078C22.7734 26.9922 21.2969 27.4141 19.6094 27.4141C18.6953 27.4141 17.8516 27.2734 17.1484 26.8516C16.375 26.5 15.8828 26.0078 15.6016 25.4453L14.4766 29.5938C14.1953 30.7891 13.4922 32.3359 12.3672 34.1641C13.9844 34.7266 15.6719 34.9375 17.5 34.9375C20.5938 34.9375 23.5469 34.1641 26.2188 32.6172C28.8906 31.0703 31 28.8906 32.5469 26.2188C34.0938 23.5469 34.9375 20.6641 34.9375 17.5Z" fill="#999999"/>
</svg>
