<svg width="39" height="27" viewBox="0 0 39 27" fill="none" xmlns="http://www.w3.org/2000/svg">
<path d="M37.9219 4.21875C38.2031 5.48438 38.4844 7.45312 38.625 9.98438L38.6953 13.5L38.625 17.0156C38.4844 19.6875 38.2031 21.5859 37.9219 22.8516C37.6406 23.6953 37.2188 24.3984 36.6562 24.9609C36.0234 25.5938 35.3203 26.0156 34.4766 26.2266C33.2109 26.5781 30.3984 26.7891 25.8984 26.9297L19.5 27L13.1016 26.9297C8.60156 26.7891 5.71875 26.5781 4.52344 26.2266C3.67969 26.0156 2.90625 25.5938 2.34375 24.9609C1.71094 24.3984 1.28906 23.6953 1.07812 22.8516C0.726562 21.5859 0.515625 19.6875 0.375 17.0156L0.304688 13.5C0.304688 12.5156 0.304688 11.3203 0.375 9.98438C0.515625 7.45312 0.726562 5.48438 1.07812 4.21875C1.28906 3.375 1.71094 2.67188 2.34375 2.03906C2.90625 1.47656 3.67969 1.05469 4.52344 0.773438C5.71875 0.492188 8.60156 0.210938 13.1016 0.0703125L19.5 0L25.8984 0.0703125C30.3984 0.210938 33.2109 0.492188 34.4766 0.773438C35.3203 1.05469 36.0234 1.47656 36.6562 2.03906C37.2188 2.67188 37.6406 3.375 37.9219 4.21875ZM15.5625 19.2656L25.6172 13.5L15.5625 7.80469V19.2656Z" fill="#999999"/>
</svg>
